<svg xmlns="http://www.w3.org/2000/svg" viewBox="0 0 100 100" fill="#415884" >
	<path d="M98.3276 31.9888C91.8146 25.4757 84.2094 20.4316 75.7238 16.9966C67.5339 13.6813 58.8793 12.0001 50 12C41.1212 12 32.4667 13.681 24.2768 16.9964C15.7904 20.4316 8.18519 25.4758 1.67235 31.9887C-0.55745 34.2185 -0.55745 37.8465 1.67235 40.0763C2.75246 41.1564 4.18867 41.7513 5.71625 41.7513C7.24382 41.7513 8.68003 41.1564 9.76 40.0763C20.4898 29.3471 34.7805 23.4379 50 23.4379C65.2197 23.4379 79.5104 29.3469 90.2399 40.0766C91.3202 41.1567 92.7563 41.7515 94.2838 41.7515H94.2841C95.8118 41.7515 97.2476 41.1566 98.328 40.0766C100.557 37.8468 100.557 34.2186 98.3276 31.9888ZM95.473 37.2218C95.1556 37.5392 94.7332 37.7142 94.2838 37.7142H94.2836C93.8346 37.7144 93.4123 37.5393 93.0947 37.2218C81.6027 25.7298 66.2978 19.4006 50 19.4006C33.7023 19.4006 18.3975 25.7295 6.90523 37.2217C6.58776 37.539 6.16546 37.714 5.71638 37.714C5.26716 37.714 4.84486 37.539 4.52726 37.2216C3.8716 36.5659 3.8716 35.4991 4.52726 34.8434C10.6555 28.7154 17.8098 23.9698 25.7917 20.7386C33.4981 17.619 41.643 16.0372 50 16.0372C58.3577 16.0373 66.5026 17.6191 74.2089 20.7387C82.1906 23.9697 89.3449 28.7152 95.4731 34.8434C96.1285 35.4994 96.1285 36.5662 95.473 37.2218Z"/>
	<path d="M84.7366 45.58C80.0552 40.8986 74.5898 37.2734 68.492 34.8051C62.6052 32.4221 56.3834 31.2138 50.0002 31.2138C43.6168 31.2138 37.3952 32.4221 31.5084 34.8051C25.4105 37.2735 19.9451 40.8986 15.2637 45.58C14.1834 46.6601 13.5886 48.0963 13.5886 49.624C13.5886 51.1517 14.1836 52.5878 15.2637 53.668C16.3439 54.7479 17.7801 55.3427 19.3076 55.3427C20.8353 55.3427 22.2713 54.7479 23.3515 53.668C30.4575 46.5617 39.9215 42.6481 50.0001 42.6481C60.0786 42.6481 69.5427 46.5617 76.6488 53.6678C77.7288 54.7479 79.1651 55.343 80.6931 55.343C82.2208 55.343 83.6567 54.7481 84.737 53.668C85.8171 52.588 86.4121 51.1517 86.4121 49.624C86.4117 48.0963 85.8168 46.6601 84.7366 45.58ZM81.8817 50.8131C81.5641 51.1307 81.1418 51.3055 80.6927 51.3055C80.2433 51.3055 79.8212 51.1307 79.5036 50.8131C71.6346 42.9441 61.1567 38.6106 49.9999 38.6106C38.843 38.6106 28.3651 42.9441 20.4967 50.8131C20.1792 51.1304 19.7568 51.3053 19.3076 51.3053C18.8583 51.3053 18.436 51.1304 18.1184 50.8127C17.8008 50.4954 17.6259 50.0732 17.6259 49.6239C17.6259 49.1746 17.8008 48.7522 18.1184 48.4347C26.6202 39.933 37.9428 35.2509 50.0002 35.2509C62.0576 35.2509 73.3801 39.933 81.8818 48.4347C82.1993 48.7522 82.3742 49.1746 82.3742 49.6239C82.3742 50.0732 82.1995 50.4952 81.8817 50.8131Z"/>
	<path d="M71.1453 59.1713C65.5045 53.5306 57.995 50.4241 50 50.4241C42.0052 50.4241 34.4956 53.5306 28.8548 59.1713C27.7747 60.2515 27.1799 61.6876 27.18 63.2154C27.18 64.743 27.7748 66.1789 28.8548 67.2588C29.9349 68.3393 31.3711 68.9341 32.8988 68.9341C34.4266 68.9341 35.8626 68.339 36.9426 67.2591C40.4232 63.7789 45.0605 61.862 50 61.862C54.9397 61.862 59.5771 63.7789 63.0573 67.2591C64.137 68.3393 65.5733 68.9344 67.1014 68.9344C68.6292 68.9344 70.0652 68.3393 71.1453 67.2593C72.2254 66.1795 72.8203 64.7433 72.8203 63.2154C72.8203 61.6876 72.2254 60.2515 71.1453 59.1713ZM68.2903 64.4043C67.9729 64.7218 67.5506 64.8968 67.1014 64.8968C66.6522 64.8968 66.2298 64.722 65.9124 64.404C61.6692 60.1613 56.018 57.8244 50 57.8244C43.982 57.8244 38.331 60.1611 34.0876 64.4043C33.7701 64.722 33.3479 64.8968 32.8988 64.8968C32.4498 64.8968 32.0273 64.722 31.7096 64.404C31.3921 64.0867 31.2173 63.6644 31.2173 63.2152C31.2172 62.7659 31.3921 62.3436 31.7096 62.026C36.5879 57.1479 43.0836 54.4614 50 54.4614C56.9165 54.4614 63.4122 57.1479 68.2905 62.026C68.608 62.3436 68.783 62.7659 68.783 63.2152C68.783 63.6644 68.6081 64.0864 68.2903 64.4043Z"/>
	<path d="M54.9377 75.379C53.6185 74.0599 51.8651 73.3339 50 73.3339C48.1349 73.3339 46.3813 74.06 45.0624 75.379C43.7436 76.698 43.0173 78.4517 43.0174 80.3166C43.0174 82.1817 43.7436 83.9353 45.0627 85.254C46.3813 86.5727 48.1347 87.299 50 87.299C50.0003 87.299 50.0003 87.299 50.0006 87.299C51.8651 87.299 53.6189 86.5728 54.9379 85.254C57.6603 82.5316 57.6603 78.1016 54.9377 75.379ZM52.0832 82.3993C51.5265 82.9558 50.787 83.2618 50.0004 83.2618H50.0002C49.2132 83.2618 48.4735 82.9556 47.9173 82.3993C46.7689 81.251 46.7689 79.3824 47.9172 78.2338C48.4735 77.6775 49.2132 77.3712 50 77.3712C50.7869 77.3712 51.5267 77.6775 52.0829 78.2338C53.2314 79.3823 53.2314 81.2507 52.0832 82.3993Z"/>
</svg>
