<?xml version="1.0" encoding="iso-8859-1"?>
<!-- Generator: Adobe Illustrator 19.0.0, SVG Export Plug-In . SVG Version: 6.00 Build 0)  -->
<svg xmlns="http://www.w3.org/2000/svg" xmlns:xlink="http://www.w3.org/1999/xlink" version="1.1" id="Layer_1" x="0px" y="0px" viewBox="0 0 512.487 512.487" style="enable-background:new 0 0 512.487 512.487;" xml:space="preserve" width="512px" height="512px">
<g>
	<g>
		<path d="M496.103,368.244h-480c-8.848,0-16,7.168-16,16c0,8.832,7.152,16,16,16h480c8.848,0,16-7.168,16-16    C512.103,375.412,504.951,368.244,496.103,368.244z" fill="#415884"/>
	</g>
</g>
<g>
	<g>
		<path d="M449.831,80.244H62.295c-16.928,0-30.192,14.032-30.192,31.968v112.032c0,8.832,7.152,16,16,16s16-7.168,16-16l0.16-112    h383.84v112c0,8.832,7.152,16,16,16c8.848,0,16-7.168,16-16V112.212C480.103,94.276,466.807,80.244,449.831,80.244z" fill="#415884"/>
	</g>
</g>
<g>
	<g>
		<path d="M51.991,208.916c-8.464-2.72-17.456,1.904-20.16,10.288L0.775,315.076c-2.704,8.4,1.888,17.424,10.288,20.144    c1.648,0.528,3.312,0.784,4.944,0.784c6.752,0,13.04-4.32,15.216-11.072l31.056-95.872    C64.983,220.66,60.391,211.636,51.991,208.916z" fill="#415884"/>
	</g>
</g>
<g>
	<g>
		<path d="M511.687,315.012l-31.408-95.872c-2.736-8.384-11.696-12.976-20.192-10.224c-8.4,2.752-12.976,11.792-10.224,20.192    l31.408,95.872c2.208,6.736,8.464,11.024,15.2,11.024c1.648,0,3.328-0.256,4.992-0.8    C509.863,332.452,514.439,323.412,511.687,315.012z" fill="#415884"/>
	</g>
</g>
<g>
	<g>
		<path d="M464.103,208.244h-48c-8.848,0-16,7.168-16,16c0,8.832,7.152,16,16,16h48c8.848,0,16-7.168,16-16    C480.103,215.412,472.951,208.244,464.103,208.244z" fill="#415884"/>
	</g>
</g>
<g>
	<g>
		<path d="M96.103,208.244h-48c-8.848,0-16,7.168-16,16c0,8.832,7.152,16,16,16h48c8.848,0,16-7.168,16-16    C112.103,215.412,104.951,208.244,96.103,208.244z" fill="#415884"/>
	</g>
</g>
<g>
	<g>
		<path d="M240.615,128.244h-130.32c-16.928,0-30.192,13.728-30.192,31.248v64.624c0,18.016,13.264,32.128,30.192,32.128h130.304    c17.088,0,31.504-14.704,31.504-32.128v-64.624C272.103,142.26,257.975,128.244,240.615,128.244z M239.895,224.244H112.087    c0.016-0.032,0.016-0.08,0.016-0.128l0.048-63.872h127.952L239.895,224.244z" fill="#415884"/>
	</g>
</g>
<g>
	<g>
		<path d="M401.175,128.244H271.079c-17.232,0-31.232,14.128-31.232,31.488c0,8.832,6.768,16.256,15.616,16.256    c8.848,0,15.616-6.912,15.616-15.744l129.024-0.752l1.056,64.752l-129.312,0.208c0-8.832-7.152-16-16-16c-8.848,0-16,7.168-16,16    c0,17.52,14,31.792,31.216,31.792h130.096c17.072,0,30.944-14.416,30.944-32.128v-64.624    C432.103,141.972,418.503,128.244,401.175,128.244z" fill="#415884"/>
	</g>
</g>
<g>
	<g>
		<path d="M496.103,304.244h-480c-8.848,0-16,7.168-16,16v96c0,8.832,7.152,16,16,16s16-7.168,16-16v-80h448v80    c0,8.832,7.152,16,16,16c8.848,0,16-7.168,16-16v-96C512.103,311.412,504.951,304.244,496.103,304.244z" fill="#415884"/>
	</g>
</g>
<g>
</g>
<g>
</g>
<g>
</g>
<g>
</g>
<g>
</g>
<g>
</g>
<g>
</g>
<g>
</g>
<g>
</g>
<g>
</g>
<g>
</g>
<g>
</g>
<g>
</g>
<g>
</g>
<g>
</g>
</svg>
