<?xml version="1.0" encoding="iso-8859-1"?>
<!-- Generator: Adobe Illustrator 19.0.0, SVG Export Plug-In . SVG Version: 6.00 Build 0)  -->
<svg xmlns="http://www.w3.org/2000/svg" xmlns:xlink="http://www.w3.org/1999/xlink" version="1.1" id="Layer_1" x="0px" y="0px" viewBox="0 0 512 512" style="enable-background:new 0 0 512 512;" xml:space="preserve" width="96px" height="96px">
<g>
	<g>
		<path d="M367.509,379.095h-34.712v-32.502c0-4.498-3.646-8.145-8.145-8.145h-60.509v-22.344h35.192    c4.499,0,8.145-3.647,8.145-8.145v-95.993c0-4.498-3.646-8.145-8.145-8.145h-35.192v-24.357h22.58    c4.499,0,8.145-3.647,8.145-8.145c0-4.498-3.646-8.145-8.145-8.145H187.36v-14.414h42.218c4.499,0,8.145-3.647,8.145-8.145V28.764    c0-4.498-3.646-8.145-8.145-8.145H128.584c-4.499,0-8.145,3.647-8.145,8.145v111.854c0,4.498,3.646,8.145,8.145,8.145h42.487    v14.414H91.56c-4.499,0-8.145,3.647-8.145,8.145v32.502H48.223c-4.499,0-8.145,3.647-8.145,8.145v44.058    c0,4.498,3.646,8.145,8.145,8.145s8.145-3.647,8.145-8.145v-35.914h70.384v79.705h-4.768c-1.274-6.675-4.691-12.599-9.513-17.019    c6.183-5.668,10.068-13.805,10.068-22.833c0-17.081-13.897-30.978-30.978-30.978s-30.978,13.897-30.978,30.978    c0,9.029,3.884,17.166,10.068,22.833c-4.823,4.42-8.24,10.343-9.513,17.019h-4.768v-16.641c0-4.498-3.646-8.145-8.145-8.145    c-4.499,0-8.145,3.647-8.145,8.145v24.786c0,4.498,3.646,8.145,8.145,8.145h35.192v22.344H51.481    c-4.499,0-8.145,3.647-8.145,8.145v32.502H8.145c-4.499,0-8.145,3.647-8.145,8.145v95.994c0,4.498,3.646,8.145,8.145,8.145h86.674    c4.499,0,8.145-3.647,8.145-8.145v-95.994c0-4.498-3.646-8.145-8.145-8.145H59.626v-24.358h31.934    c4.499,0,8.145-3.647,8.145-8.145v-30.488h35.192c4.499,0,8.145-3.647,8.145-8.145v-95.993c0-4.498-3.646-8.145-8.145-8.145    h-35.19v-24.357h148.151v24.357h-35.193c-4.499,0-8.145,3.647-8.145,8.145v95.994c0,4.498,3.646,8.145,8.145,8.145h35.193v22.344    h-60.51c-4.499,0-8.145,3.647-8.145,8.145v32.502H144.49c-4.499,0-8.145,3.647-8.145,8.145v95.994    c0,4.498,3.646,8.145,8.145,8.145h86.674c4.499,0,8.145-3.647,8.145-8.145v-95.994c0-4.498-3.646-8.145-8.145-8.145H195.49    v-24.358h121.017v24.357h-35.673c-4.499,0-8.145,3.647-8.145,8.145v95.994c0,4.498,3.646,8.145,8.145,8.145h86.674    c4.499,0,8.145-3.647,8.145-8.145V387.24C375.654,382.742,372.008,379.095,367.509,379.095z M37.998,475.09    c2.258-5.215,7.45-8.874,13.483-8.874s11.226,3.66,13.483,8.874H37.998z M51.481,449.926c-8.099,0-14.689-6.59-14.689-14.689    c0-8.099,6.59-14.689,14.689-14.689s14.689,6.59,14.689,14.689C66.17,443.336,59.58,449.926,51.481,449.926z M86.674,395.385    v79.705h-4.768c-1.274-6.675-4.691-12.599-9.513-17.019c6.183-5.668,10.068-13.805,10.068-22.833    c0-17.081-13.897-30.978-30.978-30.978c-17.081,0-30.979,13.897-30.979,30.978c0,9.029,3.884,17.166,10.068,22.833    c-4.823,4.42-8.24,10.343-9.513,17.019h-4.768v-79.705H86.674z M78.076,299.816c2.258-5.215,7.45-8.874,13.484-8.874    c6.034,0,11.226,3.66,13.483,8.874H78.076z M91.559,274.652c-8.099,0-14.689-6.59-14.689-14.689    c0-8.099,6.59-14.689,14.689-14.689s14.689,6.59,14.689,14.689C106.248,268.063,99.658,274.652,91.559,274.652z M144.757,132.473    h-8.029V36.909h84.705v95.564h-8.029c-1.332-8.453-5.724-15.901-12.002-21.176c7.592-6.38,12.429-15.936,12.429-26.606    c0-19.162-15.589-34.751-34.751-34.751S144.33,65.529,144.33,84.691c0,10.67,4.837,20.226,12.429,26.606    C150.481,116.573,146.09,124.02,144.757,132.473z M179.081,66.23c10.18,0,18.461,8.282,18.461,18.461    c0,10.18-8.282,18.461-18.461,18.461s-18.461-8.281-18.461-18.461C160.62,74.511,168.901,66.23,179.081,66.23z M161.436,132.473    c2.325-7.538,9.354-13.031,17.645-13.031s15.32,5.494,17.644,13.031H161.436z M174.344,475.09    c2.258-5.215,7.45-8.874,13.483-8.874c6.034,0,11.226,3.66,13.482,8.874H174.344z M187.827,449.926    c-8.099,0-14.689-6.59-14.689-14.689c0-8.099,6.59-14.689,14.689-14.689c8.099,0,14.688,6.59,14.688,14.689    C202.515,443.336,195.926,449.926,187.827,449.926z M223.019,395.385v79.705h-4.77c-1.274-6.675-4.691-12.599-9.513-17.019    c6.183-5.668,10.068-13.805,10.068-22.833c0-17.081-13.897-30.978-30.977-30.978c-17.081,0-30.978,13.897-30.978,30.978    c0,9.029,3.884,17.166,10.068,22.833c-4.823,4.42-8.24,10.343-9.513,17.019h-4.77v-79.705H223.019z M225.576,299.817h-4.77    v-79.705h70.384v79.705h-4.77c-1.274-6.675-4.691-12.599-9.513-17.019c6.183-5.668,10.068-13.805,10.068-22.833    c0-17.081-13.897-30.978-30.977-30.978c-17.081,0-30.978,13.897-30.978,30.978c0,9.029,3.885,17.166,10.068,22.833    C230.267,287.218,226.849,293.141,225.576,299.817z M255.999,245.275c8.099,0,14.688,6.59,14.688,14.689    c0,8.099-6.589,14.689-14.688,14.689c-8.099,0-14.689-6.59-14.689-14.689C241.311,251.865,247.9,245.275,255.999,245.275z     M242.516,299.816c2.258-5.215,7.45-8.874,13.483-8.874c6.034,0,11.226,3.66,13.482,8.874H242.516z M310.689,475.09    c2.258-5.215,7.449-8.874,13.483-8.874c6.034,0,11.226,3.66,13.483,8.874H310.689z M324.172,449.926    c-8.099,0-14.689-6.59-14.689-14.689c0-8.099,6.59-14.689,14.689-14.689s14.689,6.59,14.689,14.689    C338.86,443.336,332.271,449.926,324.172,449.926z M359.365,475.09h-0.001h-4.768c-1.274-6.675-4.691-12.599-9.513-17.019    c6.183-5.668,10.068-13.805,10.068-22.833c0-17.081-13.897-30.978-30.978-30.978s-30.978,13.897-30.978,30.978    c0,9.029,3.884,17.166,10.068,22.833c-4.823,4.42-8.24,10.343-9.513,17.019h-4.768v-79.705h70.384V475.09z" fill="#415884"/>
	</g>
</g>
<g>
	<g>
		<path d="M503.855,379.095h-35.193v-32.502c0-4.498-3.646-8.145-8.145-8.145h-31.934v-22.344h35.193    c4.499,0,8.145-3.647,8.145-8.145v-95.993c0-4.498-3.646-8.145-8.145-8.145h-35.193v-32.502c0-4.498-3.646-8.145-8.145-8.145    h-65.921v-14.414h42.352c4.499,0,8.145-3.647,8.145-8.145V81.186c0-4.498-3.646-8.145-8.145-8.145s-8.145,3.647-8.145,8.145    v51.288h-8.029c-1.332-8.453-5.724-15.901-12.002-21.176c7.592-6.38,12.429-15.936,12.429-26.606    c0-19.162-15.589-34.751-34.751-34.751s-34.751,15.589-34.751,34.751c0,10.67,4.837,20.226,12.429,26.606    c-6.278,5.276-10.67,12.723-12.002,21.176h-8.029V36.909h84.705v17.128c0,4.498,3.646,8.145,8.145,8.145s8.145-3.647,8.145-8.145    V28.764c0-4.498-3.646-8.145-8.145-8.145H295.877c-4.499,0-8.145,3.647-8.145,8.145v111.854c0,4.498,3.646,8.145,8.145,8.145    h42.352v14.414h-24.355c-4.499,0-8.145,3.647-8.145,8.145c0,4.498,3.646,8.145,8.145,8.145h98.42v24.357h-35.192    c-4.499,0-8.145,3.647-8.145,8.145v95.994c0,4.498,3.646,8.145,8.145,8.145h35.192v30.488c0,4.498,3.646,8.145,8.145,8.145h31.934    v24.357h-35.192c-4.499,0-8.145,3.647-8.145,8.145v95.994c0,4.498,3.646,8.145,8.145,8.145h66.049c0.003,0,20.625,0,20.625,0    c4.499,0,8.145-3.647,8.145-8.145v-95.994C512,382.742,508.353,379.095,503.855,379.095z M346.373,66.23    c10.18,0,18.461,8.282,18.461,18.461c0,10.18-8.281,18.461-18.461,18.461c-10.18,0-18.461-8.281-18.461-18.461    C327.912,74.511,336.193,66.23,346.373,66.23z M328.728,132.473c2.325-7.538,9.354-13.031,17.645-13.031    c8.29,0,15.32,5.494,17.644,13.031H328.728z M390.016,299.817h-4.77v-79.705h0h70.384v79.705h-4.77    c-1.274-6.675-4.691-12.599-9.513-17.019c6.183-5.668,10.068-13.805,10.068-22.833c0-17.081-13.897-30.978-30.978-30.978    s-30.977,13.897-30.977,30.978c0,9.029,3.884,17.166,10.068,22.833C394.708,287.218,391.29,293.141,390.016,299.817z     M420.439,245.275c8.099,0,14.689,6.59,14.689,14.689c0,8.099-6.59,14.689-14.689,14.689c-8.099,0-14.688-6.59-14.688-14.689    C405.751,251.865,412.339,245.275,420.439,245.275z M406.956,299.816c2.258-5.215,7.449-8.874,13.482-8.874    c6.034,0,11.226,3.66,13.483,8.874H406.956z M447.035,475.09c2.258-5.215,7.449-8.874,13.482-8.874s11.226,3.66,13.483,8.874    H447.035z M460.517,449.926c-8.099,0-14.688-6.59-14.688-14.689c0-8.099,6.588-14.689,14.688-14.689    c8.099,0,14.689,6.59,14.689,14.689C475.206,443.336,468.616,449.926,460.517,449.926z M490.941,475.09    c-1.274-6.675-4.691-12.599-9.513-17.019c6.183-5.668,10.068-13.805,10.068-22.833c0-17.081-13.897-30.978-30.978-30.978    s-30.977,13.897-30.977,30.978c0,9.029,3.884,17.166,10.068,22.833c-4.822,4.42-8.239,10.343-9.513,17.019h-4.77v-79.705h70.384    v79.705H490.941z" fill="#415884"/>
	</g>
</g>
<g>
</g>
<g>
</g>
<g>
</g>
<g>
</g>
<g>
</g>
<g>
</g>
<g>
</g>
<g>
</g>
<g>
</g>
<g>
</g>
<g>
</g>
<g>
</g>
<g>
</g>
<g>
</g>
<g>
</g>
</svg>
